<?xml version="1.0" encoding="UTF-8"?>
<svg id="Layer_1" data-name="Layer 1" xmlns="http://www.w3.org/2000/svg" viewBox="0 0 512 512">
  <defs>
    <style>
      .cls-1 {
        fill: none;
        stroke: red;
        stroke-linecap: round;
        stroke-miterlimit: 10;
        stroke-width: 20px;
      }

      .cls-2 {
        fill: red;
      }
    </style>
  </defs>
  <path class="cls-1" d="M407.66,136.14c26.2,33.08,41.84,74.89,41.84,120.36,0,107.14-86.86,194-194,194-42.32,0-81.48-13.55-113.37-36.56"/>
  <path class="cls-1" d="M255.5,62.5c1.85,0,3.69,.03,5.52,.08,44.37,1.24,85.01,17.38,117.1,43.59"/>
  <path class="cls-1" d="M141.47,99.53c21-15.28,45.19-26.45,71.38-32.33"/>
  <path class="cls-1" d="M92.9,150.65c3.93-6.03,8.19-11.82,12.74-17.36"/>
  <g>
    <g>
      <circle class="cls-2" cx="201.76" cy="271.9" r="24.79"/>
      <path class="cls-2" d="M243.67,319.24c-4.91-12.78,1.47-27.12,14.25-32.03,1.91-.73,3.85-1.21,5.79-1.45l-6.85-17.83c-1.49-3.87-5.82-5.8-9.69-4.31l-80.18,30.81c-3.87,1.49-5.8,5.82-4.31,9.69l30.81,80.18c1.49,3.87,5.82,5.8,9.69,4.31l80.18-30.81c3.87-1.49,5.8-5.82,4.31-9.69l-6.69-17.42c-1.61,1.12-3.36,2.06-5.27,2.79-12.78,4.91-27.12-1.47-32.03-14.25Z"/>
    </g>
    <g>
      <circle class="cls-2" cx="288.77" cy="301.45" r="24.79"/>
      <path class="cls-2" d="M336.11,259.53c-12.78,4.91-27.12-1.47-32.03-14.25-.73-1.91-1.21-3.85-1.45-5.79l-17.83,6.85c-3.87,1.49-5.8,5.82-4.31,9.69l30.81,80.18c1.49,3.87,5.82,5.8,9.69,4.31l80.18-30.81c3.87-1.49,5.8-5.82,4.31-9.69l-30.81-80.18c-1.49-3.87-5.82-5.8-9.69-4.31l-17.42,6.69c1.12,1.61,2.06,3.36,2.79,5.27,4.91,12.78-1.47,27.12-14.25,32.03Z"/>
    </g>
    <g>
      <circle class="cls-2" cx="234.39" cy="185.58" r="24.79"/>
      <path class="cls-2" d="M187.05,227.5c12.78-4.91,27.12,1.47,32.03,14.25,.73,1.91,1.21,3.85,1.45,5.79l17.83-6.85c3.87-1.49,5.8-5.82,4.31-9.69l-30.81-80.18c-1.49-3.87-5.82-5.8-9.69-4.31l-80.18,30.81c-3.87,1.49-5.8,5.82-4.31,9.69l30.81,80.18c1.49,3.87,5.82,5.8,9.69,4.31l17.42-6.69c-1.12-1.61-2.06-3.36-2.79-5.27-4.91-12.78,1.47-27.12,14.25-32.03Z"/>
    </g>
  </g>
</svg>