<?xml version="1.0" encoding="utf-8"?>
<!-- Generator: Adobe Illustrator 27.0.1, SVG Export Plug-In . SVG Version: 6.00 Build 0)  -->
<svg version="1.1" id="Layer_1" xmlns="http://www.w3.org/2000/svg" xmlns:xlink="http://www.w3.org/1999/xlink" x="0px" y="0px"
	 viewBox="0 0 512 512" style="enable-background:new 0 0 512 512;" xml:space="preserve">
<style type="text/css">
	.st0{fill:none;stroke:#FF0000;stroke-width:20;stroke-linecap:round;stroke-miterlimit:10;}
	.st1{fill:#FF0000;}
	.st2{fill:none;stroke:#FFFFFF;stroke-width:10;stroke-miterlimit:10;}
</style>
<g>
	<path class="st0" d="M416.8,129.2c28.8,36.4,46,82.4,46,132.4c0,117.9-95.6,213.5-213.5,213.5c-46.6,0-89.7-14.9-124.8-40.2"/>
	<path class="st0" d="M249.3,48.1c2,0,4.1,0,6.1,0.1c48.8,1.4,93.5,19.1,128.9,48"/>
	<path class="st0" d="M123.8,88.9c23.1-16.8,49.7-29.1,78.5-35.6"/>
	<path class="st0" d="M70.4,145.1c4.3-6.6,9-13,14-19.1"/>
</g>
<g>
	<g>
		<circle class="st1" cx="-324.4" cy="271.4" r="24.8"/>
		<path class="st1" d="M-282.5,318.7c-4.9-12.8,1.5-27.1,14.2-32c1.9-0.7,3.9-1.2,5.8-1.5l-6.9-17.8c-1.5-3.9-5.8-5.8-9.7-4.3
			l-80.2,30.8c-3.9,1.5-5.8,5.8-4.3,9.7l30.8,80.2c1.5,3.9,5.8,5.8,9.7,4.3l80.2-30.8c3.9-1.5,5.8-5.8,4.3-9.7l-6.7-17.4
			c-1.6,1.1-3.4,2.1-5.3,2.8C-263.3,337.9-277.6,331.5-282.5,318.7L-282.5,318.7z"/>
	</g>
	<g>
		<circle class="st1" cx="-237.4" cy="301" r="24.8"/>
		<path class="st1" d="M-190.1,259c-12.8,4.9-27.1-1.5-32-14.2c-0.7-1.9-1.2-3.9-1.5-5.8l-17.8,6.9c-3.9,1.5-5.8,5.8-4.3,9.7
			l30.8,80.2c1.5,3.9,5.8,5.8,9.7,4.3l80.2-30.8c3.9-1.5,5.8-5.8,4.3-9.7l-30.8-80.2c-1.5-3.9-5.8-5.8-9.7-4.3l-17.4,6.7
			c1.1,1.6,2.1,3.4,2.8,5.3C-170.9,239.8-177.3,254.1-190.1,259L-190.1,259z"/>
	</g>
	<g>
		<circle class="st1" cx="-291.8" cy="185.1" r="24.8"/>
		<path class="st1" d="M-339.1,227c12.8-4.9,27.1,1.5,32,14.2c0.7,1.9,1.2,3.9,1.4,5.8l17.8-6.9c3.9-1.5,5.8-5.8,4.3-9.7l-30.8-80.2
			c-1.5-3.9-5.8-5.8-9.7-4.3l-80.2,30.8c-3.9,1.5-5.8,5.8-4.3,9.7l30.8,80.2c1.5,3.9,5.8,5.8,9.7,4.3l17.4-6.7
			c-1.1-1.6-2.1-3.4-2.8-5.3C-358.3,246.3-351.9,231.9-339.1,227L-339.1,227z"/>
	</g>
</g>
<g>
	<g>
		<path class="st1" d="M398.1,354.1H294.9v-28.4c0-28.5,23.1-51.6,51.6-51.6h0c28.5,0,51.6,23.1,51.6,51.6V354.1z"/>
		<circle class="st1" cx="346.5" cy="232.2" r="37"/>
	</g>
	<g>
		<path class="st1" d="M215.1,354.7H111.9v-28.4c0-28.5,23.1-51.6,51.6-51.6h0c28.5,0,51.6,23.1,51.6,51.6V354.7z"/>
		<circle class="st1" cx="163.5" cy="232.8" r="37"/>
	</g>
	<path class="st2" d="M312,357.1H184v-47.1c0-28.8,23.4-52.2,52.2-52.2h23.7c28.8,0,52.2,23.4,52.2,52.2V357.1z"/>
	<circle class="st2" cx="248" cy="206" r="45.9"/>
	<path class="st1" d="M312,357.1H184v-47.1c0-28.8,23.4-52.2,52.2-52.2h23.7c28.8,0,52.2,23.4,52.2,52.2V357.1z"/>
	<circle class="st1" cx="248" cy="206" r="45.9"/>
</g>
</svg>
