<?xml version="1.0" encoding="UTF-8"?>
<svg id="Layer_1" data-name="Layer 1" xmlns="http://www.w3.org/2000/svg" viewBox="0 0 512 512">
  <defs>
    <style>
      .cls-1 {
        stroke: #fff;
        stroke-width: 10px;
      }

      .cls-1, .cls-2 {
        fill: none;
        stroke-miterlimit: 10;
      }

      .cls-2 {
        stroke: red;
        stroke-linecap: round;
        stroke-width: 20px;
      }

      .cls-3 {
        fill: red;
      }
    </style>
  </defs>
  <g>
    <path class="cls-2" d="M416.75,129.17c28.83,36.4,46.04,82.41,46.04,132.44,0,117.9-95.58,213.48-213.48,213.48-46.57,0-89.66-14.91-124.75-40.23"/>
    <path class="cls-2" d="M249.32,48.14c2.04,0,4.06,.03,6.07,.09,48.82,1.36,93.54,19.12,128.86,47.97"/>
    <path class="cls-2" d="M123.84,88.89c23.11-16.81,49.73-29.11,78.55-35.58"/>
    <path class="cls-2" d="M70.4,145.14c4.32-6.64,9.01-13.01,14.02-19.1"/>
  </g>
  <g>
    <g>
      <path class="cls-3" d="M346.47,274.05h0c28.48,0,51.6,23.12,51.6,51.6v28.41h-103.19v-28.41c0-28.48,23.12-51.6,51.6-51.6Z"/>
      <circle class="cls-3" cx="346.47" cy="232.19" r="36.98"/>
    </g>
    <g>
      <path class="cls-3" d="M163.53,274.65h0c28.48,0,51.6,23.12,51.6,51.6v28.41H111.93v-28.41c0-28.48,23.12-51.6,51.6-51.6Z"/>
      <circle class="cls-3" cx="163.53" cy="232.79" r="36.98"/>
    </g>
    <path class="cls-1" d="M236.2,257.89h23.65c28.8,0,52.18,23.38,52.18,52.18v47.07H184.02v-47.07c0-28.8,23.38-52.18,52.18-52.18Z"/>
    <circle class="cls-1" cx="248.03" cy="205.96" r="45.88"/>
    <path class="cls-3" d="M236.2,257.89h23.65c28.8,0,52.18,23.38,52.18,52.18v47.07H184.02v-47.07c0-28.8,23.38-52.18,52.18-52.18Z"/>
    <circle class="cls-3" cx="248.03" cy="205.96" r="45.88"/>
  </g>
</svg>