<?xml version="1.0" encoding="UTF-8"?>
<svg id="Layer_1" data-name="Layer 1" xmlns="http://www.w3.org/2000/svg" viewBox="0 0 512 512">
  <defs>
    <style>
      .cls-1 {
        fill: none;
        stroke: red;
        stroke-linecap: round;
        stroke-miterlimit: 10;
        stroke-width: 20px;
      }

      .cls-2 {
        fill: red;
      }
    </style>
  </defs>
  <path class="cls-1" d="M255.5,62.5c1.85,0,3.69,.03,5.52,.08,104.59,2.92,188.48,88.63,188.48,193.92s-86.86,194-194,194c-42.32,0-81.48-13.55-113.37-36.56"/>
  <path class="cls-1" d="M141.47,99.53c21-15.28,45.19-26.45,71.38-32.33"/>
  <path class="cls-1" d="M92.9,150.65c3.93-6.03,8.19-11.82,12.74-17.36"/>
  <rect class="cls-2" x="221" y="349" width="70" height="70" rx="35" ry="35"/>
  <path class="cls-2" d="M265.2,329h-19.4c-8,0-14.86-5.7-16.33-13.57l-31.66-169.78c-1.91-10.22,5.94-19.66,16.33-19.66h82.73c10.39,0,18.23,9.44,16.33,19.66l-31.66,169.78c-1.47,7.86-8.33,13.57-16.33,13.57Z"/>
</svg>